<mxfile host="app.diagrams.net" agent="Mozilla/5.0 (Macintosh; Intel Mac OS X 10_15_7) AppleWebKit/537.36 (KHTML, like Gecko) Chrome/133.0.0.0 Safari/537.36" version="26.0.14">
  <diagram name="Page-1" id="1u0bXLWwdKbNFYyK-Vdu">
    <mxGraphModel dx="2849" dy="931" grid="1" gridSize="10" guides="1" tooltips="1" connect="1" arrows="1" fold="1" page="1" pageScale="1" pageWidth="850" pageHeight="1100" math="0" shadow="0">
      <root>
        <mxCell id="0" />
        <mxCell id="1" parent="0" />
        <mxCell id="QZLf1c5xowND6YFxL0pv-1" value="Auction" style="swimlane;whiteSpace=wrap;html=1;" vertex="1" parent="1">
          <mxGeometry x="360" y="453" width="165" height="130" as="geometry" />
        </mxCell>
        <mxCell id="QZLf1c5xowND6YFxL0pv-48" value="Aid: int&lt;div&gt;name: String&lt;/div&gt;&lt;div&gt;schedule: String&lt;/div&gt;&lt;div&gt;type: String&lt;/div&gt;" style="text;html=1;align=center;verticalAlign=middle;whiteSpace=wrap;rounded=0;" vertex="1" parent="QZLf1c5xowND6YFxL0pv-1">
          <mxGeometry x="-20" y="25" width="137.5" height="60" as="geometry" />
        </mxCell>
        <mxCell id="QZLf1c5xowND6YFxL0pv-92" value="*" style="text;html=1;align=center;verticalAlign=middle;whiteSpace=wrap;rounded=0;" vertex="1" parent="QZLf1c5xowND6YFxL0pv-1">
          <mxGeometry x="-37.5" y="50" width="60" height="30" as="geometry" />
        </mxCell>
        <mxCell id="QZLf1c5xowND6YFxL0pv-2" value="Auction-House" style="swimlane;whiteSpace=wrap;html=1;" vertex="1" parent="1">
          <mxGeometry x="360" y="653" width="165" height="140" as="geometry" />
        </mxCell>
        <mxCell id="QZLf1c5xowND6YFxL0pv-52" value="Auid : int&lt;div&gt;name: String&lt;/div&gt;&lt;div&gt;location: String&lt;/div&gt;" style="text;html=1;align=center;verticalAlign=middle;whiteSpace=wrap;rounded=0;" vertex="1" parent="QZLf1c5xowND6YFxL0pv-2">
          <mxGeometry x="-4" y="20" width="110" height="60" as="geometry" />
        </mxCell>
        <mxCell id="QZLf1c5xowND6YFxL0pv-3" value="Administrator" style="swimlane;whiteSpace=wrap;html=1;" vertex="1" parent="1">
          <mxGeometry x="360" y="853" width="165" height="130" as="geometry" />
        </mxCell>
        <mxCell id="QZLf1c5xowND6YFxL0pv-55" value="Adid: int&lt;div&gt;name: String&lt;/div&gt;" style="text;html=1;align=center;verticalAlign=middle;whiteSpace=wrap;rounded=0;" vertex="1" parent="QZLf1c5xowND6YFxL0pv-3">
          <mxGeometry x="-9" y="30" width="104" height="30" as="geometry" />
        </mxCell>
        <mxCell id="QZLf1c5xowND6YFxL0pv-69" value="1" style="text;html=1;align=center;verticalAlign=middle;whiteSpace=wrap;rounded=0;" vertex="1" parent="QZLf1c5xowND6YFxL0pv-3">
          <mxGeometry x="-37.5" y="40" width="60" height="30" as="geometry" />
        </mxCell>
        <mxCell id="QZLf1c5xowND6YFxL0pv-6" value="Online" style="swimlane;whiteSpace=wrap;html=1;" vertex="1" parent="1">
          <mxGeometry x="69" y="123" width="165" height="130" as="geometry" />
        </mxCell>
        <mxCell id="QZLf1c5xowND6YFxL0pv-43" value="Oid: int&lt;div&gt;start_time: string&lt;/div&gt;&lt;div&gt;end_time: string&lt;/div&gt;" style="text;html=1;align=center;verticalAlign=middle;whiteSpace=wrap;rounded=0;" vertex="1" parent="QZLf1c5xowND6YFxL0pv-6">
          <mxGeometry x="-34" y="10" width="160" height="70" as="geometry" />
        </mxCell>
        <mxCell id="QZLf1c5xowND6YFxL0pv-7" value="In-Person" style="swimlane;whiteSpace=wrap;html=1;" vertex="1" parent="1">
          <mxGeometry x="490" y="123" width="165" height="130" as="geometry" />
        </mxCell>
        <mxCell id="QZLf1c5xowND6YFxL0pv-45" value="Catalog: list" style="text;html=1;align=center;verticalAlign=middle;whiteSpace=wrap;rounded=0;" vertex="1" parent="QZLf1c5xowND6YFxL0pv-7">
          <mxGeometry x="-24" y="20" width="135" height="30" as="geometry" />
        </mxCell>
        <mxCell id="QZLf1c5xowND6YFxL0pv-8" value="" style="endArrow=none;html=1;rounded=0;" edge="1" parent="1">
          <mxGeometry width="50" height="50" relative="1" as="geometry">
            <mxPoint x="442.08000000000004" y="653" as="sourcePoint" />
            <mxPoint x="442.08000000000004" y="583" as="targetPoint" />
          </mxGeometry>
        </mxCell>
        <mxCell id="QZLf1c5xowND6YFxL0pv-9" value="" style="endArrow=none;html=1;rounded=0;" edge="1" parent="1">
          <mxGeometry width="50" height="50" relative="1" as="geometry">
            <mxPoint x="442.08" y="853" as="sourcePoint" />
            <mxPoint x="442" y="793" as="targetPoint" />
          </mxGeometry>
        </mxCell>
        <mxCell id="QZLf1c5xowND6YFxL0pv-10" value="" style="verticalLabelPosition=bottom;verticalAlign=top;html=1;shape=mxgraph.basic.acute_triangle;dx=0.5;rotation=-180;" vertex="1" parent="1">
          <mxGeometry x="425" y="433" width="30" height="20" as="geometry" />
        </mxCell>
        <mxCell id="QZLf1c5xowND6YFxL0pv-13" value="" style="endArrow=none;html=1;rounded=0;" edge="1" parent="1">
          <mxGeometry width="50" height="50" relative="1" as="geometry">
            <mxPoint x="160" y="363" as="sourcePoint" />
            <mxPoint x="560" y="363" as="targetPoint" />
          </mxGeometry>
        </mxCell>
        <mxCell id="QZLf1c5xowND6YFxL0pv-14" value="" style="endArrow=none;html=1;rounded=0;" edge="1" parent="1">
          <mxGeometry width="50" height="50" relative="1" as="geometry">
            <mxPoint x="160" y="363" as="sourcePoint" />
            <mxPoint x="160" y="253" as="targetPoint" />
          </mxGeometry>
        </mxCell>
        <mxCell id="QZLf1c5xowND6YFxL0pv-15" value="" style="endArrow=none;html=1;rounded=0;" edge="1" parent="1">
          <mxGeometry width="50" height="50" relative="1" as="geometry">
            <mxPoint x="560" y="363" as="sourcePoint" />
            <mxPoint x="560" y="253" as="targetPoint" />
          </mxGeometry>
        </mxCell>
        <mxCell id="QZLf1c5xowND6YFxL0pv-16" value="" style="endArrow=none;html=1;rounded=0;" edge="1" parent="1">
          <mxGeometry width="50" height="50" relative="1" as="geometry">
            <mxPoint x="439.58000000000004" y="433" as="sourcePoint" />
            <mxPoint x="439.58000000000004" y="363" as="targetPoint" />
          </mxGeometry>
        </mxCell>
        <mxCell id="QZLf1c5xowND6YFxL0pv-17" value="Schedule" style="swimlane;whiteSpace=wrap;html=1;" vertex="1" parent="1">
          <mxGeometry x="670" y="653" width="165" height="130" as="geometry" />
        </mxCell>
        <mxCell id="QZLf1c5xowND6YFxL0pv-54" value="Sid: int&lt;div&gt;time_slots: String&lt;/div&gt;" style="text;html=1;align=center;verticalAlign=middle;resizable=0;points=[];autosize=1;strokeColor=none;fillColor=none;" vertex="1" parent="QZLf1c5xowND6YFxL0pv-17">
          <mxGeometry x="-10" y="20" width="120" height="40" as="geometry" />
        </mxCell>
        <mxCell id="QZLf1c5xowND6YFxL0pv-18" value="Expert" style="swimlane;whiteSpace=wrap;html=1;" vertex="1" parent="1">
          <mxGeometry x="670" y="843" width="165" height="130" as="geometry" />
        </mxCell>
        <mxCell id="QZLf1c5xowND6YFxL0pv-56" value="Exid: int&lt;div&gt;name: String&lt;/div&gt;&lt;div&gt;expertise: String&lt;/div&gt;&lt;div&gt;availability_schedule: String&lt;/div&gt;" style="text;html=1;align=center;verticalAlign=middle;resizable=0;points=[];autosize=1;strokeColor=none;fillColor=none;" vertex="1" parent="QZLf1c5xowND6YFxL0pv-18">
          <mxGeometry x="-10" y="20" width="170" height="70" as="geometry" />
        </mxCell>
        <mxCell id="QZLf1c5xowND6YFxL0pv-74" value="*" style="text;html=1;align=center;verticalAlign=middle;whiteSpace=wrap;rounded=0;" vertex="1" parent="QZLf1c5xowND6YFxL0pv-18">
          <mxGeometry x="-40" y="50" width="60" height="30" as="geometry" />
        </mxCell>
        <mxCell id="QZLf1c5xowND6YFxL0pv-19" value="Availiability" style="swimlane;whiteSpace=wrap;html=1;" vertex="1" parent="1">
          <mxGeometry x="910" y="843" width="165" height="130" as="geometry" />
        </mxCell>
        <mxCell id="QZLf1c5xowND6YFxL0pv-57" value="Avid: int&lt;div&gt;time_slots : String&lt;/div&gt;" style="text;html=1;align=center;verticalAlign=middle;whiteSpace=wrap;rounded=0;" vertex="1" parent="QZLf1c5xowND6YFxL0pv-19">
          <mxGeometry y="20" width="100" height="40" as="geometry" />
        </mxCell>
        <mxCell id="QZLf1c5xowND6YFxL0pv-20" value="" style="endArrow=none;html=1;rounded=0;entryX=0;entryY=0.5;entryDx=0;entryDy=0;exitX=1;exitY=0.5;exitDx=0;exitDy=0;" edge="1" parent="1" source="QZLf1c5xowND6YFxL0pv-28" target="QZLf1c5xowND6YFxL0pv-3">
          <mxGeometry width="50" height="50" relative="1" as="geometry">
            <mxPoint x="225" y="923" as="sourcePoint" />
            <mxPoint x="315" y="923" as="targetPoint" />
          </mxGeometry>
        </mxCell>
        <mxCell id="QZLf1c5xowND6YFxL0pv-21" value="" style="endArrow=none;html=1;rounded=0;entryX=0.25;entryY=0;entryDx=0;entryDy=0;" edge="1" parent="1" target="QZLf1c5xowND6YFxL0pv-18">
          <mxGeometry width="50" height="50" relative="1" as="geometry">
            <mxPoint x="200" y="723" as="sourcePoint" />
            <mxPoint x="700" y="813" as="targetPoint" />
            <Array as="points">
              <mxPoint x="280" y="723" />
              <mxPoint x="280" y="823" />
              <mxPoint x="711" y="823" />
            </Array>
          </mxGeometry>
        </mxCell>
        <mxCell id="QZLf1c5xowND6YFxL0pv-22" value="" style="endArrow=none;html=1;rounded=0;" edge="1" parent="1">
          <mxGeometry width="50" height="50" relative="1" as="geometry">
            <mxPoint x="142" y="803" as="sourcePoint" />
            <mxPoint x="142.02" y="853" as="targetPoint" />
          </mxGeometry>
        </mxCell>
        <mxCell id="QZLf1c5xowND6YFxL0pv-23" value="" style="endArrow=none;html=1;rounded=0;" edge="1" parent="1">
          <mxGeometry width="50" height="50" relative="1" as="geometry">
            <mxPoint x="740" y="843" as="sourcePoint" />
            <mxPoint x="740" y="783" as="targetPoint" />
          </mxGeometry>
        </mxCell>
        <mxCell id="QZLf1c5xowND6YFxL0pv-24" value="" style="endArrow=none;html=1;rounded=0;" edge="1" parent="1">
          <mxGeometry width="50" height="50" relative="1" as="geometry">
            <mxPoint x="835" y="907.44" as="sourcePoint" />
            <mxPoint x="910" y="907" as="targetPoint" />
          </mxGeometry>
        </mxCell>
        <mxCell id="QZLf1c5xowND6YFxL0pv-25" value="" style="endArrow=none;html=1;rounded=0;" edge="1" parent="1">
          <mxGeometry width="50" height="50" relative="1" as="geometry">
            <mxPoint x="525" y="917.44" as="sourcePoint" />
            <mxPoint x="670" y="917" as="targetPoint" />
          </mxGeometry>
        </mxCell>
        <mxCell id="QZLf1c5xowND6YFxL0pv-26" value="" style="endArrow=none;html=1;rounded=0;entryX=0;entryY=0.5;entryDx=0;entryDy=0;" edge="1" parent="1" target="QZLf1c5xowND6YFxL0pv-17">
          <mxGeometry width="50" height="50" relative="1" as="geometry">
            <mxPoint x="525" y="717.44" as="sourcePoint" />
            <mxPoint x="615" y="717.44" as="targetPoint" />
          </mxGeometry>
        </mxCell>
        <mxCell id="QZLf1c5xowND6YFxL0pv-28" value="Client" style="swimlane;whiteSpace=wrap;html=1;" vertex="1" parent="1">
          <mxGeometry x="60" y="853" width="165" height="130" as="geometry" />
        </mxCell>
        <mxCell id="QZLf1c5xowND6YFxL0pv-58" value="Cid: int&lt;div&gt;name: String&lt;/div&gt;&lt;div&gt;institution: String&lt;/div&gt;&lt;div&gt;contant_info: int&lt;/div&gt;" style="text;html=1;align=center;verticalAlign=middle;whiteSpace=wrap;rounded=0;" vertex="1" parent="QZLf1c5xowND6YFxL0pv-28">
          <mxGeometry x="-5" y="25" width="105" height="60" as="geometry" />
        </mxCell>
        <mxCell id="QZLf1c5xowND6YFxL0pv-29" value="Service-Request" style="swimlane;whiteSpace=wrap;html=1;" vertex="1" parent="1">
          <mxGeometry x="30" y="673" width="165" height="130" as="geometry" />
        </mxCell>
        <mxCell id="QZLf1c5xowND6YFxL0pv-50" value="SRid : int&lt;div&gt;type: String&lt;/div&gt;&lt;div&gt;status: String&lt;/div&gt;" style="text;html=1;align=center;verticalAlign=middle;whiteSpace=wrap;rounded=0;" vertex="1" parent="QZLf1c5xowND6YFxL0pv-29">
          <mxGeometry x="-50" y="20" width="180" height="60" as="geometry" />
        </mxCell>
        <mxCell id="QZLf1c5xowND6YFxL0pv-30" value="" style="endArrow=diamondThin;endFill=0;endSize=24;html=1;rounded=0;entryX=1;entryY=0.25;entryDx=0;entryDy=0;" edge="1" parent="1" target="QZLf1c5xowND6YFxL0pv-28">
          <mxGeometry width="160" relative="1" as="geometry">
            <mxPoint x="360" y="523" as="sourcePoint" />
            <mxPoint x="240" y="883" as="targetPoint" />
            <Array as="points">
              <mxPoint x="300" y="523" />
              <mxPoint x="300" y="883" />
            </Array>
          </mxGeometry>
        </mxCell>
        <mxCell id="QZLf1c5xowND6YFxL0pv-31" value="Institution" style="swimlane;whiteSpace=wrap;html=1;" vertex="1" parent="1">
          <mxGeometry x="-250" y="653" width="165" height="130" as="geometry" />
        </mxCell>
        <mxCell id="QZLf1c5xowND6YFxL0pv-51" value="name : String&lt;div&gt;location : String&lt;/div&gt;&lt;div&gt;owns_objects: boolean&lt;/div&gt;" style="text;html=1;align=center;verticalAlign=middle;whiteSpace=wrap;rounded=0;" vertex="1" parent="QZLf1c5xowND6YFxL0pv-31">
          <mxGeometry y="7.5" width="131" height="85" as="geometry" />
        </mxCell>
        <mxCell id="QZLf1c5xowND6YFxL0pv-32" value="Interested-Object" style="swimlane;whiteSpace=wrap;html=1;" vertex="1" parent="1">
          <mxGeometry x="-240" y="408" width="165" height="130" as="geometry" />
        </mxCell>
        <mxCell id="QZLf1c5xowND6YFxL0pv-49" value="Obid: int&lt;div&gt;name: String&lt;/div&gt;&lt;div&gt;description: String&lt;br&gt;owned: Boolean&lt;/div&gt;" style="text;html=1;align=center;verticalAlign=middle;whiteSpace=wrap;rounded=0;" vertex="1" parent="QZLf1c5xowND6YFxL0pv-32">
          <mxGeometry x="-30" y="25" width="160" height="60" as="geometry" />
        </mxCell>
        <mxCell id="QZLf1c5xowND6YFxL0pv-33" value="" style="endArrow=diamondThin;endFill=0;endSize=24;html=1;rounded=0;exitX=0.5;exitY=1;exitDx=0;exitDy=0;entryX=0;entryY=0.25;entryDx=0;entryDy=0;" edge="1" parent="1" source="QZLf1c5xowND6YFxL0pv-31" target="QZLf1c5xowND6YFxL0pv-28">
          <mxGeometry width="160" relative="1" as="geometry">
            <mxPoint x="-170" y="893" as="sourcePoint" />
            <mxPoint x="-10" y="893" as="targetPoint" />
            <Array as="points">
              <mxPoint x="-167" y="883" />
            </Array>
          </mxGeometry>
        </mxCell>
        <mxCell id="QZLf1c5xowND6YFxL0pv-34" value="" style="endArrow=diamondThin;endFill=0;endSize=24;html=1;rounded=0;exitX=0.5;exitY=0;exitDx=0;exitDy=0;entryX=0.5;entryY=1;entryDx=0;entryDy=0;" edge="1" parent="1" source="QZLf1c5xowND6YFxL0pv-31" target="QZLf1c5xowND6YFxL0pv-32">
          <mxGeometry width="160" relative="1" as="geometry">
            <mxPoint x="-200" y="583" as="sourcePoint" />
            <mxPoint x="-40" y="583" as="targetPoint" />
          </mxGeometry>
        </mxCell>
        <mxCell id="QZLf1c5xowND6YFxL0pv-35" value="viewing" style="swimlane;whiteSpace=wrap;html=1;" vertex="1" parent="1">
          <mxGeometry x="270" y="123" width="165" height="130" as="geometry" />
        </mxCell>
        <mxCell id="QZLf1c5xowND6YFxL0pv-44" value="object : String" style="text;html=1;align=center;verticalAlign=middle;whiteSpace=wrap;rounded=0;" vertex="1" parent="QZLf1c5xowND6YFxL0pv-35">
          <mxGeometry y="25" width="106" height="20" as="geometry" />
        </mxCell>
        <mxCell id="QZLf1c5xowND6YFxL0pv-36" value="" style="endArrow=none;html=1;rounded=0;" edge="1" parent="1">
          <mxGeometry width="50" height="50" relative="1" as="geometry">
            <mxPoint x="435" y="203" as="sourcePoint" />
            <mxPoint x="490" y="203" as="targetPoint" />
          </mxGeometry>
        </mxCell>
        <mxCell id="QZLf1c5xowND6YFxL0pv-37" value="" style="endArrow=none;html=1;rounded=0;" edge="1" parent="1">
          <mxGeometry width="50" height="50" relative="1" as="geometry">
            <mxPoint x="360" y="683" as="sourcePoint" />
            <mxPoint x="280" y="253" as="targetPoint" />
            <Array as="points">
              <mxPoint x="280" y="683" />
            </Array>
          </mxGeometry>
        </mxCell>
        <mxCell id="QZLf1c5xowND6YFxL0pv-38" value="" style="endArrow=none;html=1;rounded=0;exitX=1;exitY=0.5;exitDx=0;exitDy=0;entryX=0;entryY=0.5;entryDx=0;entryDy=0;" edge="1" parent="1" source="QZLf1c5xowND6YFxL0pv-32" target="QZLf1c5xowND6YFxL0pv-2">
          <mxGeometry width="50" height="50" relative="1" as="geometry">
            <mxPoint x="40" y="498" as="sourcePoint" />
            <mxPoint x="40" y="388" as="targetPoint" />
            <Array as="points">
              <mxPoint x="100" y="623" />
            </Array>
          </mxGeometry>
        </mxCell>
        <mxCell id="QZLf1c5xowND6YFxL0pv-59" value="1" style="text;html=1;align=center;verticalAlign=middle;whiteSpace=wrap;rounded=0;" vertex="1" parent="1">
          <mxGeometry x="-187.5" y="783" width="60" height="30" as="geometry" />
        </mxCell>
        <mxCell id="QZLf1c5xowND6YFxL0pv-60" value="1" style="text;html=1;align=center;verticalAlign=middle;whiteSpace=wrap;rounded=0;" vertex="1" parent="1">
          <mxGeometry x="-187.5" y="633" width="60" height="30" as="geometry" />
        </mxCell>
        <mxCell id="QZLf1c5xowND6YFxL0pv-61" value="1" style="text;html=1;align=center;verticalAlign=middle;whiteSpace=wrap;rounded=0;" vertex="1" parent="1">
          <mxGeometry x="425" y="583" width="60" height="30" as="geometry" />
        </mxCell>
        <mxCell id="QZLf1c5xowND6YFxL0pv-62" value="1" style="text;html=1;align=center;verticalAlign=middle;whiteSpace=wrap;rounded=0;" vertex="1" parent="1">
          <mxGeometry x="430" y="633" width="60" height="30" as="geometry" />
        </mxCell>
        <mxCell id="QZLf1c5xowND6YFxL0pv-64" value="1" style="text;html=1;align=center;verticalAlign=middle;whiteSpace=wrap;rounded=0;" vertex="1" parent="1">
          <mxGeometry x="510" y="693" width="60" height="30" as="geometry" />
        </mxCell>
        <mxCell id="QZLf1c5xowND6YFxL0pv-65" value="1" style="text;html=1;align=center;verticalAlign=middle;whiteSpace=wrap;rounded=0;" vertex="1" parent="1">
          <mxGeometry x="722.5" y="813" width="60" height="30" as="geometry" />
        </mxCell>
        <mxCell id="QZLf1c5xowND6YFxL0pv-66" value="1" style="text;html=1;align=center;verticalAlign=middle;whiteSpace=wrap;rounded=0;" vertex="1" parent="1">
          <mxGeometry x="510" y="893" width="60" height="30" as="geometry" />
        </mxCell>
        <mxCell id="QZLf1c5xowND6YFxL0pv-67" value="1" style="text;html=1;align=center;verticalAlign=middle;whiteSpace=wrap;rounded=0;" vertex="1" parent="1">
          <mxGeometry x="420" y="833" width="60" height="30" as="geometry" />
        </mxCell>
        <mxCell id="QZLf1c5xowND6YFxL0pv-70" value="*" style="text;html=1;align=center;verticalAlign=middle;whiteSpace=wrap;rounded=0;" vertex="1" parent="1">
          <mxGeometry x="20" y="853" width="60" height="30" as="geometry" />
        </mxCell>
        <mxCell id="QZLf1c5xowND6YFxL0pv-72" value="*" style="text;html=1;align=center;verticalAlign=middle;whiteSpace=wrap;rounded=0;" vertex="1" parent="1">
          <mxGeometry x="210" y="913" width="60" height="30" as="geometry" />
        </mxCell>
        <mxCell id="QZLf1c5xowND6YFxL0pv-73" value="*" style="text;html=1;align=center;verticalAlign=middle;whiteSpace=wrap;rounded=0;" vertex="1" parent="1">
          <mxGeometry x="225" y="863" width="60" height="30" as="geometry" />
        </mxCell>
        <mxCell id="QZLf1c5xowND6YFxL0pv-75" value="*" style="text;html=1;align=center;verticalAlign=middle;whiteSpace=wrap;rounded=0;" vertex="1" parent="1">
          <mxGeometry x="870" y="883" width="60" height="30" as="geometry" />
        </mxCell>
        <mxCell id="QZLf1c5xowND6YFxL0pv-76" value="*" style="text;html=1;align=center;verticalAlign=middle;whiteSpace=wrap;rounded=0;" vertex="1" parent="1">
          <mxGeometry x="820" y="883" width="60" height="30" as="geometry" />
        </mxCell>
        <mxCell id="QZLf1c5xowND6YFxL0pv-77" value="*" style="text;html=1;align=center;verticalAlign=middle;whiteSpace=wrap;rounded=0;" vertex="1" parent="1">
          <mxGeometry x="630" y="693" width="60" height="30" as="geometry" />
        </mxCell>
        <mxCell id="QZLf1c5xowND6YFxL0pv-79" value="*" style="text;html=1;align=center;verticalAlign=middle;whiteSpace=wrap;rounded=0;" vertex="1" parent="1">
          <mxGeometry x="670" y="823" width="60" height="30" as="geometry" />
        </mxCell>
        <mxCell id="QZLf1c5xowND6YFxL0pv-80" value="*" style="text;html=1;align=center;verticalAlign=middle;whiteSpace=wrap;rounded=0;" vertex="1" parent="1">
          <mxGeometry x="420" y="790" width="60" height="30" as="geometry" />
        </mxCell>
        <mxCell id="QZLf1c5xowND6YFxL0pv-82" value="*" style="text;html=1;align=center;verticalAlign=middle;whiteSpace=wrap;rounded=0;" vertex="1" parent="1">
          <mxGeometry x="100" y="800" width="60" height="30" as="geometry" />
        </mxCell>
        <mxCell id="QZLf1c5xowND6YFxL0pv-83" value="*" style="text;html=1;align=center;verticalAlign=middle;whiteSpace=wrap;rounded=0;" vertex="1" parent="1">
          <mxGeometry x="100" y="833" width="60" height="30" as="geometry" />
        </mxCell>
        <mxCell id="QZLf1c5xowND6YFxL0pv-84" value="*" style="text;html=1;align=center;verticalAlign=middle;whiteSpace=wrap;rounded=0;" vertex="1" parent="1">
          <mxGeometry x="180" y="703" width="60" height="30" as="geometry" />
        </mxCell>
        <mxCell id="QZLf1c5xowND6YFxL0pv-85" value="*" style="text;html=1;align=center;verticalAlign=middle;whiteSpace=wrap;rounded=0;" vertex="1" parent="1">
          <mxGeometry x="320" y="663" width="60" height="30" as="geometry" />
        </mxCell>
        <mxCell id="QZLf1c5xowND6YFxL0pv-86" value="*" style="text;html=1;align=center;verticalAlign=middle;whiteSpace=wrap;rounded=0;" vertex="1" parent="1">
          <mxGeometry x="320" y="723" width="60" height="30" as="geometry" />
        </mxCell>
        <mxCell id="QZLf1c5xowND6YFxL0pv-87" value="*" style="text;html=1;align=center;verticalAlign=middle;whiteSpace=wrap;rounded=0;" vertex="1" parent="1">
          <mxGeometry x="-90" y="458" width="60" height="30" as="geometry" />
        </mxCell>
        <mxCell id="QZLf1c5xowND6YFxL0pv-88" value="*" style="text;html=1;align=center;verticalAlign=middle;whiteSpace=wrap;rounded=0;" vertex="1" parent="1">
          <mxGeometry x="270" y="253" width="60" height="30" as="geometry" />
        </mxCell>
        <mxCell id="QZLf1c5xowND6YFxL0pv-89" value="" style="endArrow=none;html=1;rounded=0;entryX=1;entryY=0.5;entryDx=0;entryDy=0;exitX=0;exitY=0;exitDx=0;exitDy=0;" edge="1" parent="1" source="QZLf1c5xowND6YFxL0pv-18" target="QZLf1c5xowND6YFxL0pv-1">
          <mxGeometry width="50" height="50" relative="1" as="geometry">
            <mxPoint x="580" y="623" as="sourcePoint" />
            <mxPoint x="630" y="573" as="targetPoint" />
          </mxGeometry>
        </mxCell>
        <mxCell id="QZLf1c5xowND6YFxL0pv-90" value="*" style="text;html=1;align=center;verticalAlign=middle;whiteSpace=wrap;rounded=0;" vertex="1" parent="1">
          <mxGeometry x="630" y="830" width="60" height="30" as="geometry" />
        </mxCell>
        <mxCell id="QZLf1c5xowND6YFxL0pv-91" value="*" style="text;html=1;align=center;verticalAlign=middle;whiteSpace=wrap;rounded=0;" vertex="1" parent="1">
          <mxGeometry x="510" y="508" width="60" height="30" as="geometry" />
        </mxCell>
        <mxCell id="QZLf1c5xowND6YFxL0pv-94" value="1" style="text;html=1;align=center;verticalAlign=middle;whiteSpace=wrap;rounded=0;" vertex="1" parent="1">
          <mxGeometry x="412.5" y="173" width="60" height="30" as="geometry" />
        </mxCell>
        <mxCell id="QZLf1c5xowND6YFxL0pv-95" value="1" style="text;html=1;align=center;verticalAlign=middle;whiteSpace=wrap;rounded=0;" vertex="1" parent="1">
          <mxGeometry x="455" y="173" width="60" height="30" as="geometry" />
        </mxCell>
      </root>
    </mxGraphModel>
  </diagram>
</mxfile>
